<svg xmlns="http://www.w3.org/2000/svg" width="92" height="87" fill="none" viewBox="24 36 92 87"><path fill="#303924" d="M26.059 63.081c-.63.91-.645 3.716.016 10.397.494 5.065 1.204 10.746 1.66 12.666.378 1.932.452 3.474.076 3.398l3.182 11.91c.922 1.495 2.09 3.633 3.678 6.664.776 1.358 1.538 2.63 1.769 2.813.46.367 2.409 4.88 2.243 5.119l6.154 4.737c1.43-1.238 1.229-2.288-.884-4.707-1.382-1.616-2.091-3.069-2.402-5.096-.55-3.849.482-4.513 3.387-2.206 3.124 2.405 12.152 6.605 16.224 7.538 1.801.392 1.97-.883 1.164-7.457-.756-5.718-.271-8.894 1.367-9.298.543-.163 3.137.116 5.711.528 6.561 1.055 9.12.045 8.43-3.396-.377-1.931.372-3.116 3.376-5.181 2.184-1.605 2.284-1.748 2.515-3.938.11-1.397-.268-3.328-1.023-4.817-.894-1.6-1.173-3.157-.912-4.359.87-3.834 6.726-10.014 11.043-11.705 1.038-.363 2.362-1.759 4.1-4.162 2.367-3.313 2.95-3.74 8.929-7.005 7.229-3.829 8.745-5.295 7.398-7.477-1.242-2.025-5.644-5.37-7.604-5.74-.924-.215-2.982-.958-4.519-1.733-3.818-1.918-5.844-2.192-12.185-1.811-3.005.21-6.241.237-7.245.034-.99-.118-4.676.145-8.15.724-6.172.961-6.422.91-7.884-.695-1.415-1.568-1.666-1.62-3.967-.775-1.342.492-2.823 1.392-3.32 2.11-.465.67-1.915 2.04-3.18 3.04-4.666 3.638-6.753 6.135-8.727 10.427-1.037 2.218-2.145 4.231-2.437 4.445-.29.214-1.94-.502-3.594-1.519-1.668-1.1-3.171-1.923-3.376-1.937-.158.022-1.006.833-1.874 1.775-1.212 1.337-1.744 2.62-2.202 5.447-.738 4.16-1.532 4.791-3.057 2.246-1.393-2.22-2.786-2.583-3.88-1.004M40.936 92.99c.507.403-1.715 5.982-2.481 6.263-1.105.459-1.326-.459-.45-2.136 1.667-3.128 2.562-4.42 2.931-4.127M29.753 73.431c.423.113 1.385.58 2.177.986 2.235 1.107 3.543-1.192 3.724-6.612.17-6.021.884-6.64 5.084-4.345 4.9 2.628 6.639 1.562 8.475-5.214 1.188-4.397 2.594-6.322 4.887-6.95.509-.114 1.627-1.007 2.575-1.96 1.603-1.695 1.761-1.717 2.854-.405.987 1.155 1.396 1.183 3.016.392 7.374-3.418 16.269-5.628 17.837-4.383 1.278.94 9.608 2.435 11.2 1.994 2.294-.628 3.204.02 2.98 1.994l-.176 1.492 1.593-.442c.938-.22 2.07-1.027 2.567-1.745.763-1.1 1.192-1.204 2.557-.491 2.11 1.081 4.37 2.875 4.105 3.258-.1.144-.966.568-1.937.836-3.306 1.158-6.404 3.669-7.672 6.222-.95 1.99-1.877 2.812-5.49 5.136-5.14 3.188-8.99 7.401-10.593 11.469-.779 2.052-.923 4.014-.524 7.668.5 4.848.468 4.896-1.233 6.216-1.535 1.08-2.484 2.553-4.152 6.198-.34.695-1.073.928-2.076.725-.878-.177-3.227-.707-5.313-1.102-3.432-.722-3.828-.665-5.06.804-1.4 1.708-2.478 7.082-2.386 11.902.015 1.421-.061 2.77-.194 2.961-.133.192-1.34-.025-2.733-.389-2.124-.648-3.39-1.504-7.941-5.563-5.256-4.691-5.408-4.886-4.922-6.206.28-.816.264-2.238.03-3.24-.425-1.45-.299-1.943.402-2.128.588-.127 2.726-1.767 4.904-3.673 7.694-6.872 17.908-10.78 23.979-9.224 3.365.818 3.874.703 3.615-.987-.467-3.04-6.96-4.709-12.953-3.385-2.194.484-4.077.621-4.082.32-.038-.771 2.96-7.367 4.153-9.09 1.393-2.009 4.884-3.54 15.34-6.66 6.855-2.051 11.93-5.662 10.688-7.686-1.196-1.988-8.674-1.1-16.125 1.81-5.884 2.302-14.12 7.482-18.571 11.738-10.297 9.7-14.658 15.065-18.054 22.234-1.115 2.23-2.224 4.242-2.549 4.504-.549.38-1.801-2.765-2.123-5.395-.071-.723-.587-2.764-1.143-4.54-1.203-4.145-2.056-8.382-1.691-8.909.166-.24.608-.259.951-.135"/></svg>