<svg xmlns="http://www.w3.org/2000/svg" width="110.098" height="79.391" viewBox="451.199 285.926 110.098 79.391"><path fill-rule="evenodd" d="M472.785 292.156c-.398.219-.586.578-.93 1.754-.175.606-.41 1.285-.52 1.508-.206.422-.315.887-.628 2.672a28 28 0 0 1-.34 1.66c-.105.398-.18 1.438-.215 2.988-.07 3.27.149 5.692.598 6.63.293.6.293.667.027.667-.289 0-.562.113-.562.235 0 .054.187.097.422.097h.422l-.258 1.246c-.153.735-.258 1.66-.266 2.266l-.008 1.02-.46.124q-.457.124-.903.266c-.773.25-1.32.277-2.836.156-1.64-.132-2.176-.144-3.113-.074-1.078.082-1.461.633-1.57 2.27-.04.53-.118 1.464-.18 2.074-.09.863-.074 1.547.07 3.148.117 1.309.172 2.91.156 4.426-.015 1.309.004 3.848.036 5.64.05 2.423.023 3.72-.098 5.032-.352 3.863.18 8.773 1.133 10.418.375.652.64.808 1.39.808.797 0 1.567-.285 3.743-1.378 1.875-.946 2.87-1.247 4.64-1.387 2.465-.2 3.516-.457 4.402-1.09.235-.168.567-.227 1.57-.277 1.384-.07 1.684-.11 2.766-.364.875-.203 1.403-.539 1.543-.98.059-.18.11-1.25.114-2.375s.054-2.496.113-3.043c.164-1.535.133-2.25-.16-3.625-.328-1.566-.43-3.438-.547-10.2-.031-1.886-.113-4.073-.176-4.866-.11-1.344-.515-3.297-.816-3.926-.09-.188-.485-.453-1.235-.824l-1.101-.551-1.293-.043c-1.465-.047-1.414-.008-1.418-1.098 0-.61.11-.707.539-.476.281.148 2.695.73 3.719.894.816.133 1.867.215 2.64.215.172 0 .383.055.465.121.098.082.516.098 1.285.05.625-.038 1.606-.093 2.18-.116.762-.036 1.09-.094 1.238-.23.188-.169.211-.169.274 0 .078.195.547.245.656.07.113-.188.355-.125.418.109.062.238.473.308.547.09.023-.075.125-.098.23-.059.278.106.356.082.32-.094-.058-.28.172-.168.243.118.058.23.137.277.484.285.227.004.578.023.785.043.293.027.383-.012.426-.18.035-.133.121-.191.219-.156a1 1 0 0 0 .207.062c.023 0 .047.094.047.207 0 .145.105.23.332.274.328.066.332.078.25.539-.078.445-.086.793-.028 1.582.04.5-.351 4.422-.445 4.515-.031.028-.504-.015-1.05-.101a15 15 0 0 0-1.77-.152 27 27 0 0 1-1.992-.137c-1.477-.164-2.106-.16-2.309.012-.086.07-.273.101-.418.066-.7-.164-1.023.855-.988 3.125.012.684-.031 1.434-.09 1.66a9 9 0 0 0-.164.742c-.027.184-.11.719-.184 1.188-.168 1.07-.09 2.265.168 2.66.106.164.23.277.27.25.043-.024.148 0 .238.055.211.129.29 3.187.11 4.273-.25 1.52-.32 2.242-.446 4.734-.101 2.028-.098 2.825.016 3.926.183 1.785.199 6.727.027 8.574-.074.79-.219 1.684-.316 1.989-.293.902-.36 1.164-.563 2.297-.23 1.28-.137 1.785.45 2.37.413.415.78.466 1.171.157.157-.121.555-.238.969-.29.559-.062.715-.124.762-.288.058-.238.152-.262.328-.086.07.07.437.113.879.098.414-.012.828-.024.922-.028.09 0 .625.035 1.187.086.91.074 1.024.063 1.024-.098 0-.101.039-.18.082-.18.132.005.379.18.398.286.027.148.637.125.793-.027.074-.075.242-.11.371-.075.137.036.235.008.235-.062 0-.067.05-.121.113-.121.058 0 .11.074.11.164 0 .12.12.164.433.164.34 0 .453-.047.508-.219.082-.265.199-.281.425-.055.203.2.368.211.43.028.035-.102.086-.11.203-.016.086.067.457.11.82.098.852-.031.832-.027.758-.223-.093-.242.13-.199.309.059.183.277 1.039.344 1.465.117.238-.129.308-.129.468.004.145.117.2.121.235.015.027-.078.09-.136.144-.136.055 0 .07.066.04.152-.075.195.66.176 1.027-.023.312-.172.367-.164.367.035 0 .133.176.164.926.164.687 0 .96-.04 1.062-.164.18-.215.434-.211.516.004.047.125.101.136.207.05.098-.085.164-.085.215-.003.11.18.738.136.96-.067.192-.172.204-.172.204.012 0 .18.082.191.875.121l.875-.074.125.383c.265.8.808.773.945-.043.086-.512.207-.582 1.16-.707.676-.086 1.106-.395 1.106-.786 0-.136-.102-.476-.227-.757-.18-.414-.332-.567-.773-.793-.453-.227-.535-.313-.453-.47.148-.276.273-1.808.246-2.94-.024-.91-.008-.977.18-.903.109.047.699.2 1.304.34.61.137 1.25.309 1.422.375 1.086.422 4.262 1.094 4.492.953.094-.058 2.195.695 2.516.906.133.086.285.133.34.102.05-.035.175.035.277.152.102.118.32.246.488.29.172.038.48.163.696.277.21.113.546.203.746.203s.359.039.359.086c0 .09.781.36 1.05.36.09 0 .169.034.169.081 0 .125.761.34.797.23.02-.054.191-.066.382-.027.211.043.332.125.301.203-.062.157 1.02.223 1.86.114.59-.078.644-.168.695-1.086.016-.313.059-.64.098-.735.035-.09.144-.562.242-1.05.097-.485.23-1.133.293-1.438s.11-.687.105-.851c-.004-.168.04-.332.098-.368s.105-.234.105-.437c0-.457.457-2.203.727-2.77.11-.23.308-.898.437-1.48l.239-1.059.136.992c.075.551.157 1.196.188 1.438.066.59.547 2.52.789 3.2.129.35.344.66.621.882.39.32.48.344 1.27.336.703-.008.968-.066 1.566-.344a10 10 0 0 1 1.535-.535c.684-.164.914-.281 1.395-.719.386-.347.718-.547 1.008-.601.234-.043.5-.137.585-.207.086-.07.286-.137.442-.145s.738-.14 1.289-.293 1.297-.281 1.66-.281c.36 0 .879-.059 1.152-.129.274-.07.579-.129.68-.129.098 0 .32-.144.492-.324.36-.379.492-.41.41-.102-.066.258.118.29.598.098a2.4 2.4 0 0 1 .64-.137c.262-.011.376-.097.52-.39.196-.391.422-.672.422-.524 0 .047-.05.18-.117.301-.063.117-.086.262-.055.316.078.122.707-.175.996-.472.137-.145.23-.176.258-.094.059.176.469.164.922-.027.207-.086.906-.235 1.555-.328.676-.102 1.453-.297 1.812-.454.344-.152.766-.277.93-.277a.74.74 0 0 0 .484-.207.49.49 0 0 1 .434-.16c.164.035.336-.047.515-.235l.27-.285-.25-1.578c-.137-.863-.293-1.746-.348-1.96l-.39-1.66c-.164-.7-.41-1.72-.555-2.267a19 19 0 0 1-.379-1.992c-.203-1.61-.332-2.37-.488-2.86-.082-.25-.277-.855-.434-1.343a43 43 0 0 0-.449-1.324c-.77-2.098-1.523-4.398-1.66-5.063-.094-.44-.242-.953-.332-1.132-.352-.715-.633-2.59-.633-4.203.008-1.79-.035-2.028-.355-2.106-.563-.137-1.7-.039-2.504.219-.274.09-.797.219-1.164.289a11 11 0 0 0-1.106.277c-.242.086-.617.18-.828.215a5 5 0 0 0-.664.16c-.45.164-1.445.367-1.504.309-.027-.028-.098-.856-.152-1.832-.059-.98-.16-2.32-.23-2.973-.137-1.258-.036-4.117.155-4.43.133-.214 1.262-1.02 1.426-1.02.094 0 .2-.077.235-.171.047-.117.148-.144.343-.098.211.055.282.028.282-.105 0-.192.515-.582.625-.473.039.035-.012.098-.114.137-.097.039-.18.117-.18.176 0 .156.446-.012.852-.32.196-.149.407-.239.469-.2.219.133.582-.058.523-.281-.027-.113.016-.266.106-.336.121-.102.203-.086.371.066.219.196.555.16.555-.058 0-.07-.094-.094-.223-.05-.125.038-.223.019-.223-.052 0-.062.07-.117.157-.117.086 0 .183-.074.218-.164.098-.262.309-.195.27.082-.027.188.02.25.187.25.176 0 .227-.086.254-.414.035-.434.297-.586.387-.223.027.106.035.082.023-.054-.015-.137.043-.305.125-.375.118-.094.149-.082.149.054 0 .223.144.227.531.028.477-.246.828-.692.899-1.133.035-.227.125-.43.199-.453.094-.031.113.07.066.351-.035.215-.027.395.016.395s.363-.29.71-.637c.348-.351.895-.836 1.212-1.078 1.062-.809 2.672-2.582 2.672-2.937 0-.172.203-.118.328.09.105.175.133.171.336-.087l.332-.41c.062-.07.11-.23.11-.351s.05-.25.112-.29c.13-.077.145-.82.024-1.015-.125-.195-1.102-.39-1.328-.266-.278.149-.633.567-.856 1-.273.543-1.258 1.555-1.441 1.48-.086-.03-.406.18-.739.497q-.982.932-1.964 1.871c-.762.723-1.618 1.477-1.903 1.668-.539.371-1.93 1.063-2.687 1.348-.649.242-2.813 1.304-3.164 1.558-.168.117-.328.176-.36.125-.14-.23-.203-1.433-.234-4.668-.035-3.691-.082-4.59-.344-6.36-.168-1.144-.363-1.858-.57-2.062-.168-.168-.563.07-.719.438-.168.402-.328 2.16-.316 3.476.008.594-.063 1.504-.153 2.024s-.152.98-.14 1.023c.015.043-.067.403-.176.797-.11.395-.246.89-.3 1.106q-.077.315-.165.636c-.09.344-.363.309-.445-.058a7 7 0 0 0-.262-.801c-.64-1.613-1.344-4.082-1.61-5.625-.445-2.605-.737-3.156-1.644-3.09l-.457.035-.035 1.547c-.039 1.942.156 5.918.375 7.52.219 1.61.64 3.289 1.168 4.64.234.606.426 1.157.426 1.227 0 .125-.446.309-2.156.89-.426.145-.875.313-.997.376a2.4 2.4 0 0 1-.515.156c-.371.062-5.434 1.683-5.93 1.898-.2.086-.531.16-.734.16-.235 0-.672.168-1.156.442-.43.242-.825.441-.88.441-.132 0-.35-1.379-.35-2.23 0-.387-.075-1.246-.169-1.914-.39-2.88-.469-3.707-.426-4.649.063-1.515.055-1.703-.117-2.031-.242-.465-.422-.566-1.215-.691-1.508-.235-1.996.437-1.824 2.503.168 2.06.11 5.032-.105 5.032-.094 0-1.301-2.395-1.63-3.239-.148-.378-.366-1.168-.484-1.757-.117-.586-.312-1.344-.43-1.68a9 9 0 0 1-.288-1.031c-.141-.82-.743-1.235-1.504-1.028-.325.086-.45.188-.504.399-.106.418.035 4.566.168 5 .062.203.168.976.234 1.715.067.738.238 1.843.379 2.449.145.61.297 1.305.34 1.55.039.243.113.493.16.551.047.063.176.5.285.977.172.742.176.883.043.969-.2.125-2.672.12-3.695-.008-.426-.05-2.043-.2-3.594-.328-1.55-.13-3.047-.281-3.32-.344-.824-.176-1.559-.21-1.77-.078-.156.098-.238.086-.383-.063-.23-.23-.406-.238-.32-.02.043.106 0 .169-.117.169a.3.3 0 0 1-.25-.176q-.065-.175-.14-.05-.076.122-.368-.106c-.246-.192-.273-.274-.191-.5.11-.281.336-1.582.554-3.149.07-.52.2-1.105.286-1.304a6 6 0 0 0 .265-.852c.152-.668.434-3.418.496-4.816.028-.637.102-1.457.164-1.82.067-.368.086-.883.047-1.153-.125-.855-1.21-2-1.894-2-.274 0-.621.45-1.22 1.582l-.358.684.062-.496c.16-1.239-.012-1.848-.61-2.157-.476-.246-.882-.203-1.46.16-.418.266-.61.5-1.004 1.243q-.42.79-.852 1.574c-.363.66-.504 1.082-.883 2.61-.406 1.636-.535 2.41-.418 2.527.075.078.06.195-.054.367-.203.312-.266.676-.473 2.8-.203 2.055-.242 3.212-.129 3.673l.086.355-.973-.063c-1.152-.07-3.363-.421-3.656-.578-.219-.117-1.11-.086-3.148.106-.957.094-1.676.09-2.766-.004-.808-.067-1.746-.145-2.078-.168a5 5 0 0 1-1.05-.2 14 14 0 0 0-1.423-.359c-.832-.172-.988-.18-1.074-.047-.074.125-.12.13-.23.02a.57.57 0 0 0-.34-.137c-.356 0-.348-.312.012-.722.187-.215.347-.426.355-.47.004-.042.02-.304.031-.577.032-.656.13-1.266.516-3.262.176-.914.371-2.27.437-3.012.067-.746.196-1.64.286-1.988s.21-1.207.261-1.914c.055-.703.172-1.453.266-1.664q.157-.368.297-.742c.074-.196.176-.36.226-.36s.18-.183.286-.41c.347-.734.136-1.578-.56-2.219-.772-.71-1.855-.738-2.206-.054-.254.484-.957 2.332-.957 2.504 0 .086-.078.422-.176.75a40 40 0 0 0-.27.98c-.05.211-.226.832-.39 1.379-.29.984-.297.992-.434.664-.074-.18-.113-.371-.086-.418.028-.05.075-.765.102-1.594.031-.824.129-1.902.219-2.398.539-2.973.593-2.734-.785-3.402-.926-.446-1.282-.508-1.692-.278m.024 6.668c-.04.176-.11.442-.16.594s-.098.352-.102.441c-.008.094-.035.664-.067 1.274-.027.61-.082 1.332-.12 1.605-.122.867-.133 1.325-.044 1.383.118.07.301-.793.395-1.828.039-.453.094-.926.117-1.05.129-.614.215-2.571.117-2.669-.035-.035-.097.078-.136.25m61.925 3.88c.032.495.13 1.046.223 1.226.121.238.133.355.043.445s-.078.242.055.578c.097.246.148.524.117.613-.07.18.16.516.3.43.048-.031.137.031.2.137.094.172.117.156.183-.11.165-.648-.41-3.066-.726-3.066-.059 0-.106-.164-.106-.363 0-.203-.078-.465-.171-.582-.157-.2-.168-.14-.118.691m-37.125-.215c-.109.192-.511 1.68-.62 2.274-.063.351-.153.699-.196.773-.047.07-.098.375-.113.672-.02.3-.082.727-.145.945a4 4 0 0 0-.105.895c.004.488.007.492.16.21.183-.339.648-1.546.957-2.48.281-.851.55-2.613.465-3.039-.063-.304-.293-.449-.403-.25m-21.523 1.2c.004.128.031.152.066.066.032-.082.028-.176-.011-.215-.036-.035-.063.031-.055.149m-.164.652a5 5 0 0 1-.176.555c-.691 1.703-.754 1.906-.715 2.367.059.73.227.789.367.125.07-.313.125-.657.125-.762s.125-.633.282-1.168.265-1.082.242-1.21c-.035-.204-.055-.188-.125.093m-18.344 1.726c-.355.266-.379.473-.098.93.157.254.407.402 1.079.649 2.062.75 3.503 1.359 4.773 2.02.746.386 1.473.702 1.617.702.145 0 .477.082.742.18.582.219 2.442.379 2.551.219.047-.067.137-.055.242.03.211.177.579.005.68-.316.04-.125.133-.222.211-.222.152 0 .59-.73.492-.824-.031-.036-.476-.114-.988-.176a16 16 0 0 1-1.375-.223 13 13 0 0 0-1.23-.207c-.532-.062-1.122-.246-1.81-.555-.562-.253-1.253-.503-1.542-.558s-1.07-.352-1.742-.66c-.668-.305-1.254-.559-1.301-.559-.043 0-.402-.148-.797-.332-.84-.387-1.094-.402-1.504-.098m15.371-.039c-.25.278-.316.668-.21 1.301l.093.55.082-.44c.043-.243.152-.676.238-.961.086-.286.157-.547.157-.582 0-.125-.192-.055-.36.132m65.535-.05c.028.078-.015.265-.097.414a1.3 1.3 0 0 0-.153.52c-.004.288-.039.3-.34.112-.32-.199-.449.047-.41.801.024.54.055.613.282.645.148.02.297.148.355.3.106.278.942.778 1.04.622.116-.192-.02-1.97-.177-2.34a4.2 4.2 0 0 1-.242-.801c-.043-.23-.133-.418-.195-.418-.067 0-.094.066-.063.145m-38.84 1.078c-.164.453-.273 2.402-.128 2.254.113-.118.382-2.286.312-2.5-.023-.079-.11.03-.183.246m38.425.316q-.065.106.04.172a.127.127 0 0 0 .171-.043c.043-.066.028-.125-.043-.168s-.125-.027-.168.04m-.172.687c0 .195.028.21.164.097.094-.074.168-.183.168-.234 0-.055-.074-.098-.168-.098-.093 0-.164.102-.164.235m-21.972 1.343c.11.793.969 4.2 1.195 4.73.2.47.594.86.734.723.153-.156.063-1.695-.136-2.218-.313-.844-1.692-3.707-1.782-3.707-.042 0-.046.21-.011.472m4.336.965c-.047.457-.18 1.328-.297 1.938a39 39 0 0 0-.324 1.988c-.059.488-.16 1.258-.223 1.715-.098.734-.086.906.113 1.476.258.739.68 1.621.778 1.621.093 0 .433-1.613.492-2.355.047-.59.031-.648-.203-.738-.477-.184-.438-1.348.05-1.473.18-.047.204-.137.16-.594-.023-.293-.101-1.234-.167-2.09-.07-.855-.16-1.726-.207-1.933-.075-.34-.094-.29-.172.445m16.64.09c0 .113.047.473.102.805.055.328.16 1.047.234 1.593.078.547.23 1.446.348 1.993.113.547.316 1.64.445 2.433.239 1.414.313 1.598.64 1.598.462 0 .477-.094.34-2.113-.12-1.782-.5-5.008-.628-5.34-.031-.082-.223-.238-.434-.348a2.2 2.2 0 0 1-.601-.512c-.266-.355-.446-.398-.446-.109m-1.879.797c0 .18-.074.219-.386.219-.215 0-.387.05-.387.113 0 .059-.152.11-.332.11-.184 0-.332.042-.332.093 0 .125-.774.348-1.203.348-.274 0-.348-.047-.348-.219 0-.348-.2-.262-.379.164-.129.309-.222.387-.46.387a.87.87 0 0 0-.509.183.86.86 0 0 1-.414.203.75.75 0 0 0-.375.153c-.136.113-.23.105-.488-.028-.222-.113-.363-.128-.476-.05-.125.09-.11.097.062.047.195-.059.192-.04-.039.156-.281.238-.488.207-.387-.059.043-.117-.02-.164-.226-.164-.23 0-.29.055-.29.27 0 .289-.234.523-.304.304-.066-.195-.36-.156-.36.047 0 .11-.058.156-.16.117-.09-.035-.19-.015-.23.043-.035.063-.14.032-.242-.074-.168-.164-.188-.16-.262.04-.058.16-.254.25-.726.335-1 .184-1.59.363-2.192.66-.883.438-.933.536-.879 1.72.117 2.417.098 3.112-.101 3.784-.157.516-.172.746-.086 1.051.129.434.136.773.058 2.434-.027.636-.011 1.457.035 1.824.086.617.11.66.364.637.957-.098 2.453-.106 2.875-.016.273.059.87.148 1.328.203.453.059.984.137 1.176.176.234.05.375.023.437-.078.05-.082.094-.969.098-1.973 0-1.398.039-1.902.168-2.152.238-.477.886-.797 1.793-.883.43-.043 1.156-.149 1.62-.238.72-.133 2.634-.446 4.138-.676.488-.074.574-.172.418-.465-.215-.398-.793-3.48-1.125-5.98-.239-1.782-.38-2.516-.493-2.579-.086-.05-.16-.16-.16-.25 0-.086-.047-.16-.11-.16-.058 0-.109.102-.109.223m-61.898.578a7.4 7.4 0 0 0-.312 1.438l-.075.746h1.348v-.813c0-.45.027-.96.059-1.137.046-.242-.004-.386-.223-.62-.16-.169-.348-.305-.422-.305s-.242.312-.375.691m24.195.195c-.007.09-.043.278-.082.414-.047.184-.015.25.114.25.191 0 .207-.12.07-.554-.05-.153-.098-.203-.102-.11m33.453.094c-.046.078-.054.172-.02.207.099.102.208-.047.153-.207-.035-.113-.062-.113-.133 0m-33.683.836c0 .066.148.129.332.145.2.011.332-.032.332-.114-.004-.07-.152-.136-.332-.144-.184-.004-.332.043-.332.113m3.152 1.856c-.332.187-.379.308-.254.664.168.484.055 1.43-.218 1.808-.247.344-.325 1.07-.274 2.594l.027.719 3.54-.012c3.292-.012 3.605-.031 4.457-.258 1.312-.351 1.882-.168 2.554.82.281.414.285.457.301 2.536.004 1.16.047 2.261.09 2.445l.082.332.129-.313a2 2 0 0 0 .125-.37c0-.2.535-.665 1.078-.938.867-.43 1.68-.426 3.293.02 2.21.613 2.5.683 2.555.628.05-.05-.223-1.683-.54-3.23-.085-.41-.128-1.399-.113-2.574.024-1.723.004-1.946-.191-2.266-.117-.2-.363-.645-.551-.996l-.336-.637-1.129-.008c-.625-.004-1.57-.007-2.101-.011-.536-.004-.938-.047-.903-.102.106-.172-.297-.246-.457-.086-.113.113-.39.145-1.047.117-.824-.03-.886-.05-.824-.25.086-.28-.086-.27-.348.024-.187.21-.289.226-.98.168-.55-.043-.816-.117-.914-.25-.121-.168-.172-.172-.41-.047-.313.168-1.543.086-1.793-.121-.11-.09-.192-.09-.309.008-.113.097-.219.101-.379.015-.148-.078-.23-.082-.257-.004-.024.078-.286.055-.754-.062-.993-.246-2.32-.492-2.653-.488-.152 0-.375.058-.496.125m-24.097.503c-.176.559-.735 3.004-.735 3.23 0 .099.188.13.637.106.351-.02 1.168.004 1.82.055 1.586.121 1.59.129 1.551 1.766-.07 2.82-.246 5.902-.356 6.261-.187.614-.445 5.344-.433 8.02.004 1.562-.04 2.55-.117 2.766-.07.183-.309.52-.532.746-.386.398-.43.414-1.16.414-.574 0-.867-.059-1.218-.25-.258-.137-.497-.285-.532-.336-.078-.102-.601.082-.707.25-.039.066-.12.09-.18.05-.058-.035-.167-.015-.242.043-.074.063-.457.114-.851.122a6.7 6.7 0 0 0-1.324.164c-.47.125-.754.132-1.246.047-.618-.11-.657-.102-.93.171a2.1 2.1 0 0 1-.633.414 1.02 1.02 0 0 0-.52.473c-.093.188-.343.43-.55.535-.426.219-.64.137-1.043-.402-.196-.266-.227-.484-.242-1.758-.036-2.531-.364-5.695-.704-6.773a2.6 2.6 0 0 1-.109-.63c0-.16-.05-.421-.11-.581-.062-.164-.16-.973-.214-1.805a34 34 0 0 0-.371-2.973c-.254-1.37-.262-1.539-.133-2.71.113-1.036.11-1.297-.016-1.547-.082-.164-.152-.368-.152-.45 0-.277.277-.734.48-.785.297-.078.891.164 1.301.528.356.32.371.32.996.191.352-.07.864-.23 1.14-.352.72-.32 2.18-.675 2.47-.605.297.074.3.055.086-.457a3.7 3.7 0 0 1-.22-.934c-.03-.297-.19-.886-.355-1.312l-.3-.774-.25.235c-.207.195-.282.21-.422.094q-.17-.14-.168-.016c0 .07-.07.125-.16.125-.086 0-.235.078-.329.172-.097.097-.222.144-.285.105s-.136-.004-.168.074c-.105.27-1.539.133-1.933-.18-.094-.073-.555-.214-1.031-.316-.797-.164-.903-.164-1.329 0-.253.098-.52.23-.586.297-.078.078-.164.86-.214 2.004-.106 2.16-.106 2.477-.016 3.98.035.61.063 2.301.059 3.762s-.004 2.73.003 2.82c.145 2.204.188 4.606.114 6.47a125 125 0 0 0-.102 3.87c-.004 1.54.156 4.723.266 5.254.031.153.16.922.289 1.711.133.79.246 1.446.258 1.457.015.016.672-.394 1.46-.906 1.571-1.02 2.176-1.262 4.516-1.816.957-.227 1.707-.336 2.297-.336.781 0 .961-.04 1.649-.387.988-.5 1.718-.684 2.804-.71.48-.013 1.075-.087 1.328-.169.25-.086.825-.219 1.274-.3 1.105-.196 1.125-.25 1.129-2.891.004-1.106.05-2.344.105-2.746.063-.461.055-1.38-.015-2.434-.063-.934-.164-2.617-.22-3.746-.054-1.125-.128-2.254-.16-2.508-.027-.258-.077-1.527-.105-2.82-.027-1.297-.07-2.606-.101-2.91l-.118-1.215c-.035-.367-.023-1.25.028-1.969.055-.75.05-1.598-.008-1.992-.055-.375-.133-.934-.176-1.238-.07-.52-.101-.567-.61-.844a3.9 3.9 0 0 0-1.163-.363c-.801-.094-2.004-.473-2.004-.633 0-.04.098-.094.223-.13.28-.07.289-.296.007-.296-.156 0-.257.137-.382.523m1.812-.242c.004.285.02.301.125.121.082-.144.082-.238-.004-.324-.09-.09-.121-.035-.121.203m-11.727 1.32c0 .094.051.168.114.168.058 0 .11-.074.11-.167 0-.09-.052-.165-.11-.165-.063 0-.114.075-.114.165m7 .109-.468.223-.004 1.011c0 .719.043 1.043.152 1.133.113.094.18.09.274-.023.132-.157.613-2.34.55-2.485-.02-.047-.246.02-.504.14m71.918 2.329c-.117.09-.156.164-.082.164.07 0 .133.047.133.11 0 .16-.332.132-.34-.028-.004-.078-.05-.035-.101.094-.067.168-.235.254-.574.308a7 7 0 0 0-.977.25c-.273.094-.832.165-1.238.16-.407-.007-.77.04-.809.102-.09.145-.09 1.285-.004 1.43.04.062.301-.05.614-.27.625-.441 1.382-.613 3.015-.691.781-.035 1.133-.012 1.254.09.27.226.598.945.598 1.32 0 .188.093.524.207.75.113.227.558 1.457.988 2.734.73 2.172 1.125 3.825 1.344 5.637.176 1.477.36 2.695.515 3.43.09.43.149 1.191.13 1.715-.016.515.034 1.215.109 1.547.12.53.117.664-.047 1.023l-.184.414h-.75c-.41 0-.824.031-.922.07-.113.043-.175.004-.175-.105 0-.2-.055-.238-.497-.344-.27-.062-.304-.05-.195.063.192.191.176.43-.027.43-.09 0-.164-.098-.164-.223 0-.121-.051-.223-.114-.223-.058 0-.109.125-.109.274 0 .218-.082.292-.414.386-.695.2-1.687.274-1.687.133 0-.07-.055-.129-.118-.129-.066 0-.09.094-.054.203.054.172-.028.223-.516.328-.32.067-.684.118-.805.11-.12-.004-.3.027-.402.07-.11.047-.258 0-.379-.121-.183-.184-.195-.184-.129-.008.082.215-.246.445-.558.399-.106-.016-.309.035-.45.113-.144.078-.367.117-.492.082-.129-.031-.289-.012-.36.047-.07.058-.6.152-1.183.215-1.086.109-1.633.254-1.633.425 0 .075-.808.395-1.328.52-.027.008-.539.246-1.129.527-.59.278-1.324.582-1.629.676-.543.16-.57.156-1.132-.137-.34-.18-.664-.449-.785-.66-.282-.48-.52-1.406-.52-2.035-.004-.992-.379-.617-.512.512-.05.441-.011.793.157 1.351a10 10 0 0 1 .3 1.532c.04.425.164 1.171.274 1.66.113.484.234 1.183.273 1.547.172 1.656.3 2.265.563 2.671.156.243.367.254.879.04.12-.055.347-.122.496-.153.761-.152 1.144-.297 1.734-.652 1.3-.781 2.648-1.328 3.633-1.465.12-.02.668-.113 1.215-.215s1.617-.277 2.379-.398c.757-.117 1.496-.266 1.636-.325.14-.062.38-.113.535-.113.157 0 .637-.117 1.075-.265.433-.149 1.386-.399 2.117-.563.73-.16 1.625-.433 1.992-.605.363-.172.836-.348 1.05-.395.212-.043.5-.168.641-.277.332-.262.895-.383 1.051-.227.215.219.317.13.137-.125-.191-.273-.23-.922-.059-1.023.059-.04.11-.121.11-.18 0-.062-.051-.082-.11-.043-.191.117-.12-.047.121-.289.278-.277.31-.066-.437-3.305-.117-.52-.324-1.414-.453-1.992a23 23 0 0 1-.348-1.933c-.18-1.446-.441-2.59-.836-3.649-.203-.55-.37-1.074-.37-1.164 0-.195-.54-1.726-.99-2.82a16 16 0 0 1-.558-1.715c-.332-1.332-.453-1.668-.742-2.063a1.57 1.57 0 0 1-.266-.777c-.03-.914-.363-3.965-.44-4.059-.048-.054-.407-.007-.825.102-.688.188-.746.188-.844.016-.125-.223-.195-.227-.473-.016m-69.957 1.25c-.152.02-.375.125-.5.227a2.4 2.4 0 0 1-.539.328l-.32.136.332.325c.3.293.344.43.453 1.406.13 1.133.25 1.355.742 1.355.305 0 .586.313.66.727.036.18.106 1.14.16 2.137.06 1 .15 1.859.208 1.914.43.433 1.297-7.387.922-8.336-.114-.285-.137-.293-.977-.274a16 16 0 0 0-1.14.055m63.745.277c-.328.375-.152 1.512.235 1.512.125 0 .164-.14.164-.582-.004-.617-.09-1.082-.207-1.074-.04.004-.125.066-.192.144m-67.421.094c-.028.078-.145.145-.262.145q-.21 0-.18.195c.028.144-.043.191-.289.191-.187 0-.555.157-.863.371-.297.204-.613.395-.703.422-.102.036.008.114.277.2 1.008.324 1.438.796 1.309 1.441-.09.453.11.426.406-.055.266-.433.387-.468.758-.207.398.278.488.063.531-1.281.04-1.172.031-1.223-.187-1.223-.125 0-.344-.078-.489-.172-.207-.132-.27-.14-.308-.027m25.043.996a.5.5 0 0 0-.137.305c-.004.266-.367 1.238-.61 1.629-.117.195-.332.41-.476.476-.25.114-.262.157-.188.75.043.348.075.825.07 1.059-.007.434.27.95.512.953.075.004.172-.133.211-.3.043-.169.235-.727.43-1.243.473-1.254.672-2.652.469-3.293-.113-.367-.176-.441-.281-.336m6.687-.058a.3.3 0 0 0-.074.187c0 .07.05.063.129-.015.074-.075.105-.157.074-.188s-.09-.023-.129.016m34.067.18c-.028.077-.438.234-.907.343-.695.164-.875.176-.945.059-.066-.11-.125-.114-.242-.016-.453.375-4.067.898-4.067.59 0-.07-.148-.035-.359.082-.336.183-.367.25-.461 1.02-.14 1.136.059 2.515.402 2.773.344.262.414.101.418-.938 0-.625-.047-.91-.168-1.03-.207-.212-.21-.587-.004-.884.145-.203.31-.238 1.465-.293.938-.043 1.48-.125 1.926-.293.965-.363 1.508-.343 2.164.079.63.402.7.421.7.183 0-.094.148-.254.331-.36.375-.21.403-.378.168-.94-.187-.446-.34-.583-.422-.376m-32.96.043c-.043.043-.192.09-.325.102-.48.05-3.129.156-3.953.156-.828 0-.836 0-1.02.36-.14.269-.527 2.074-.527 2.46 0 .028.215.055.477.055.266 0 .777.09 1.137.2 1.203.366 3.82.16 3.972-.317.11-.344.383-.477.918-.453.285.012.606.05.711.082.738.226.79 2.453.184 8.562-.242 2.465-.418 10.555-.301 13.864l.035.98-.351.29a2.5 2.5 0 0 1-.774.417c-.504.149-3.547.094-3.738-.066q-.13-.105-.348.047c-.12.082-.508.207-.863.27-.66.124-.984.07-.711-.118q.147-.106-.129-.02a2.7 2.7 0 0 1-.605.09c-.184 0-.36.04-.391.082-.035.043-.352.106-.707.137-.531.05-.676.027-.79-.129-.116-.16-.163-.164-.315-.039-.098.082-.176.11-.176.063 0-.043-.063-.028-.145.039-.176.148-2.785.09-2.98-.067-.168-.133-.856-.047-.856.11 0 .066-.144.082-.36.035-.51-.106-.987-.086-1.12.047-.063.062-.219.113-.344.113-.129 0-.281.047-.34.101-.062.063-.277.043-.547-.05a3.3 3.3 0 0 0-.855-.16c-.36 0-.461-.063-.758-.47-.27-.374-.328-.546-.281-.84.078-.483.242-.667.816-.913l.469-.203v-2.047c0-1.59-.047-2.297-.219-3.184-.156-.789-.222-1.613-.23-2.703-.008-2.215.133-3.383.68-5.621.605-2.48.574-5.402-.07-6.164-.278-.332-.356-.793-.161-.914.062-.04.113-.156.113-.262 0-.105.196-.387.438-.62.398-.388.465-.419.718-.302.153.07.415.325.582.567.344.496.38.504 1.301.28.367-.085.875-.16 1.133-.16l.473-.003v-2.727l-.637-.175c-.437-.118-.887-.153-1.437-.114-.586.043-.801.024-.801-.074 0-.094-.164-.113-.555-.07-.367.043-.555.02-.555-.059 0-.086-.054-.078-.168.016-.14.117-.195.105-.32-.063-.121-.168-.195-.183-.406-.09-.195.086-.445.067-.996-.074l-.73-.187-.067 2.5c-.035 1.375-.117 2.742-.18 3.035-.07.324-.074.61-.015.723.304.566.476 2.054.52 4.48.042 2.164.015 2.707-.169 3.758-.437 2.469-.523 5.863-.226 8.808a33 33 0 0 1 .175 4.422c-.05 2.656-.238 4.192-.859 7.055-.07.32-.098.613-.063.648s.426-.004.872-.086c.558-.101 1.578-.14 3.296-.12 1.372.015 2.961-.028 3.54-.094 1.613-.192 4.628-.204 6.304-.028.82.086 1.645.13 1.824.098.387-.07 2.47-.242 4.149-.344.64-.039 1.2-.094 1.246-.12.043-.028.082-.509.082-1.067 0-.563.078-1.664.172-2.457.203-1.7.226-3.614.058-4.926-.113-.875-.27-4.918-.238-6.078.016-.567.031-.68.281-2.047.098-.547.2-1.102.22-1.235.077-.457.081-2.964.003-3.52-.066-.483-.02-.698.379-1.75.398-1.046.473-1.374.562-2.577.067-.883.067-1.778-.003-2.504-.059-.621-.157-2.3-.211-3.73-.059-1.434-.141-2.692-.18-2.801-.059-.149-.149-.184-.348-.133-.496.125-3.172.168-3.242.055-.039-.06-.101-.075-.144-.032m39.851.004c-.496.18-1.426.653-1.715.871-.183.137-.468.285-.636.325-.274.07-.305.046-.305-.211 0-.184-.059-.29-.164-.29-.125 0-.168.13-.168.5 0 1.18-1.012 2.024-1.656 1.38-.266-.266-.371-.274-.555-.055a.53.53 0 0 1-.356.168c-.12 0-.343.097-.5.218-.445.352-.988.438-2.351.375-2.453-.113-2.668-.113-2.828.008-.211.153-.246 1.239-.055 1.703.078.188.23.368.34.403s.324.183.484.332c.246.226.29.36.29.883 0 .336-.048.699-.106.804-.055.106-.211.567-.34 1.024s-.39 1.152-.582 1.547c-.504 1.054-1.059 2.82-1.012 3.238.02.195.07.828.106 1.406.047.719.176 1.387.402 2.102.293.902.336 1.203.324 2.132-.015.891.012 1.09.157 1.145.097.04.261-.008.363-.105.312-.278 2.086-1.06 3.488-1.532 1.363-.457 1.465-.48 3.723-.86 2.719-.452 4.957-.921 5.863-1.222.336-.11.89-.234 1.23-.273l.626-.07-.043-.575c-.079-.976-.11-1.035-.747-1.328a3.1 3.1 0 0 1-1.015-.781c-.238-.281-.465-.512-.512-.512-.086 0-.867.492-1.004.633-.351.367-.64.82-.582.914.04.063.246.113.461.113.297 0 .48.09.77.375.203.207.375.453.375.547 0 .196-.41.516-.66.516-.094 0-.395.148-.668.332-.641.426-1.489.46-1.997.09-.18-.133-.328-.309-.328-.387 0-.21-.258-.18-.566.063-.52.406-1.129.507-2.164.359-1.559-.227-2.797-.98-2.797-1.707 0-.281.39-.52.844-.52.402 0 .449-.035.578-.39.078-.215.418-.688.754-1.051.652-.703.996-.824 1.426-.5.328.25.449.207.652-.242.371-.836.433-.914.887-1.133.953-.465 1.785-.18 2.074.707.074.238.203.457.285.484.082.024.375-.191.652-.48l.504-.527-.09-1.004c-.113-1.293-.113-1.657-.004-2.344.07-.445.051-.594-.085-.735-.207-.207-.348-.957-.25-1.343.093-.38.57-.59 1.117-.5.246.043.465.054.488.031.05-.043-.395-1.543-1.066-3.617-.25-.77-.454-1.219-.57-1.254a3 3 0 0 1-.372-.156 1 1 0 0 0-.219-.094 3 3 0 0 0-.195.07m-77.379.227c-.094 2.101-.094 2.125.207 2.422.156.156.34.25.406.21.149-.093.165-.617.016-.617-.058 0-.164-.195-.238-.437-.16-.54.027-.887.648-1.207l.414-.215-.441-.07a5 5 0 0 1-.695-.176c-.325-.133-.305-.137-.317.09m52.797.558c-.59.028-.633.051-.586.274.028.137.078.52.117.851.094.88.493 2.293.688 2.453.094.079.34.2.55.274.536.183.555.101.438-1.73-.144-2.2-.133-2.18-1.207-2.122m-7.332 3.192c.188.488-1.125 5.379-1.82 6.781-.39.797-.516 1.402-.656 3.207-.192 2.453-.333 3.77-.497 4.648-.238 1.262-.257 1.438-.175 1.438.109 0 .336-.523.336-.777 0-.332.57-1.805 1.265-3.262 1.793-3.75 2.192-4.633 2.594-5.75.875-2.43 1.082-2.82 1.512-2.82.14 0 .289-.055.332-.125.12-.2 1.98-.047 2.742.222l.652.235-.07-.637a33 33 0 0 0-.156-1.133l-.078-.496-.887-.246a30 30 0 0 1-1.824-.574c-2.52-.887-3.414-1.078-3.27-.711m-14.195.648c-.13.336-.23.754-.23.926 0 .394-.344.84-.766.984-.266.094-.407.067-.825-.152-.277-.148-.691-.27-.925-.27-.23 0-.543-.082-.696-.183-.507-.336-.992-.852-.992-1.055 0-.242-.074-.246-.726-.023-.286.094-.946.183-1.47.195l-.956.02.015.828c.012.457.032 1.449.047 2.21.04 1.864-.066 3.423-.257 3.883-.231.555-.747 4.239-.743 5.31.004.515.196 1.675.477 2.862.098.41.18 1.29.187 2.047.032 2.828.07 3.297.293 3.38.371.136 4.278.194 5.844.089a294 294 0 0 0 5.86-.496c.882-.098 1.183-.14 1.222-.176.035-.035.156-13.183.152-15.992-.003-.465.098-1.211.235-1.758.226-.91.273-2.336.086-2.523-.04-.04-.363-.028-.719.023-.863.129-1.644-.012-1.965-.36q-.451-.488-.523-.062c-.035.2-.07.196-.914-.058-1.344-.399-1.438-.38-1.711.351m-25.895 1.215c-.078.242-.148.8-.152 1.238-.008.688.027.836.242 1.047l.246.25-.008-1.27c-.004-.695-.047-1.367-.093-1.488-.07-.187-.106-.156-.235.223m51.055-.273c-.176.054-.363.16-.414.238-.047.078-.09.633-.09 1.23l-.004 1.086.36-.078c1.511-.336 3.835-.113 4.562.442.539.414.871 1.093.863 1.777-.008 1.012-1.496 5.867-2.039 6.656-.172.25-.37.715-.437 1.024-.067.308-.356 1.144-.645 1.855-.476 1.172-.515 1.336-.43 1.793.09.496.036 1.063-.128 1.281-.047.059-.145.457-.22.883-.179 1.043-.308 1.266-.89 1.574-.273.14-.613.387-.758.54-.21.226-.32.265-.601.202-.54-.117-1.45-.652-1.512-.886-.129-.473-.277-.567-.976-.637-.45-.047-.676-.031-.63.04.036.058.165.108.282.108s.215.075.215.165c0 .187-.176.222-.278.054-.039-.058-.285-.11-.554-.11-.621 0-1.578-.202-1.672-.355-.043-.066.008-.18.11-.253.245-.18.23-.274-.044-.274-.125 0-.34.129-.476.285-.239.278-.266.285-.723.145-.266-.078-.555-.258-.648-.403-.16-.242-.184-.246-.372-.074-.304.274-1.363.059-2.058-.418a7 7 0 0 0-1.027-.574c-1.786-.754-2.286-1.086-2.79-1.84-.183-.27-.187-.262-.203.5a24 24 0 0 1-.054 1.215c-.024.246.004.742.062 1.105.078.52.176 2.56.215 4.57.004.079.055.114.121.075.219-.137 2.484.195 3.906.57.782.207 1.754.422 2.157.48.964.141 2.668.516 3.254.723.253.086.542.16.636.164.098 0 .606.227 1.137.504 1.223.641 1.574.766 3.39 1.207 1.044.254 1.516.325 1.56.239.034-.07.175-.621.316-1.23.355-1.56.464-1.962.613-2.212.074-.12.195-.695.273-1.273s.29-1.547.469-2.156c.176-.61.445-1.555.594-2.102.152-.547.367-1.293.484-1.66.117-.363.313-1.184.434-1.824l.304-1.602c.051-.246.102-.543.114-.664.078-.629.5-2.465.742-3.226.152-.477.476-1.512.723-2.305.543-1.754.976-3.028 1.441-4.223.336-.867.344-.922.176-1.246-.203-.394-.157-.383-.719-.16-.242.098-.523.148-.625.11a.4.4 0 0 0-.344.066c-.133.113-.203.082-.383-.164-.191-.266-.289-.297-.863-.297-.36 0-.68-.055-.719-.117s-.168-.086-.285-.047c-.113.035-.27.027-.343-.016a1.1 1.1 0 0 0-.387-.113 17 17 0 0 1-1.11-.192c-1.097-.21-2.644-.296-3.062-.175m-2.692.804c-.34.078-.468.16-.468.309 0 .308.23 1.902.3 2.09.036.09.055.226.043.304-.042.254.192.141.45-.222.215-.301.261-.528.297-1.395.02-.566-.004-1.07-.059-1.113-.05-.043-.305-.031-.562.027m-53.188 1.153c.035.53.137 1.293.227 1.687.093.395.246 1.41.343 2.254.098.848.23 1.637.293 1.758.067.12.137.687.16 1.258.04.941.125 1.586.215 1.586.02 0 .274-.106.57-.239.41-.187.852-.257 1.915-.316.761-.043 1.855-.184 2.43-.313.699-.16 1.077-.203 1.152-.128.144.144.398.144.398.003 0-.058-.086-.082-.191-.05-.196.054.054-.067.722-.348.2-.086.5-.156.668-.156.536 0 .57-.133.57-1.95V332.5l-.367.059c-.48.082-.703-.145-.796-.82-.145-1.016-.227-1.298-.38-1.298-.085 0-.19.149-.241.332-.149.563-.473 1.157-.63 1.16-.081 0-.3.126-.48.278-.371.312-.652.348-1.008.117-.132-.086-.566-.238-.96-.34-.97-.25-1.048-.3-1.508-1.023-.586-.914-.82-1.52-.743-1.91.051-.258.028-.328-.113-.328-.101 0-.18.043-.18.097 0 .18-.687.77-.832.715-.078-.027-.175 0-.214.066-.157.25-.375.094-.602-.43-.129-.3-.234-.648-.234-.773s-.055-.23-.122-.23c-.085 0-.105.293-.062.969m79.777.652c-.199.203.024 2.816.317 3.695.093.285.27.61.386.719.25.223.254.184.098-.504-.062-.273-.21-1.238-.324-2.144-.2-1.559-.3-1.942-.477-1.766m-24.25 1.164c-.043.07.012.191.125.273.278.204.715.196.715-.015 0-.09.098-.164.215-.164s.246-.051.281-.113c.043-.067-.18-.11-.593-.11-.383 0-.696.055-.743.129m-8.054 2.332c-.23.5-.465 1.016-.528 1.145-.058.128-.09.351-.07.496.035.215.129.09.473-.618.238-.488.55-1.078.699-1.316.215-.344.238-.445.121-.523a.6.6 0 0 0-.215-.094c-.039 0-.254.406-.48.91m8.644.656c-1.078 1.91-1.36 2.602-1.734 4.278-.207.922-.45 1.418-.45.922 0-.145-.066-.243-.167-.243-.196 0-.383.43-.383.864 0 .332-1.016 1.68-1.266 1.68-.11 0-.164-.356-.226-1.438-.043-.793-.114-1.438-.153-1.438-.215 0-.629 1.137-.797 2.207-.109.688-.187.88-.468 1.145l-.34.312-.36-.421c-.636-.747-.652-.817-.503-1.981.082-.672.332-1.652.683-2.71.305-.915.55-1.735.55-1.821 0-.36-.233-.102-.894.972-.898 1.47-1.484 2.641-1.71 3.418-.122.426-.258.657-.422.735-.395.18-.606-.07-.692-.817-.066-.593-.172-.812-.398-.816-.047 0-.082.148-.082.328 0 .184-.051.332-.11.332-.058 0-.14.137-.175.305a6 6 0 0 1-.293.8c-.23.512-.75 1.97-.75 2.11 0 .043.359.191.8.328.442.14 1.125.422 1.52.625.398.203 1.004.422 1.355.484a6.5 6.5 0 0 1 1.215.375c.582.266.887.325 2.274.461.41.04.828.145.933.239.13.11.305.14.551.093.2-.039.594-.101.875-.136l.512-.067.058-.843c.055-.809.336-2.254.524-2.727.05-.121.195-.668.32-1.215.129-.547.43-1.617.672-2.379.742-2.328.992-3.242 1.023-3.746l.032-.48-.446-.024c-.242-.011-.523-.058-.625-.105-.14-.067-.246.023-.453.394m-4.062.34a22 22 0 0 1-.29.707c-.167.38-.202.813-.07.813.149-.004.801-1.305.801-1.594 0-.406-.277-.36-.441.074m-23.84.781c-.04.094.012.446.105.774.125.437.297.71.618 1 .44.398.445.41.445 1.203.004.625.05.863.219 1.078.12.152.218.371.218.488.004.25-.468 1.72-.554 1.723-.032 0-.258-.457-.496-1.02-.504-1.171-.915-1.632-1.942-2.183-1.504-.797-2.09-.625-2.09.621 0 .215-.058.262-.328.262-.398 0-.484.129-.484.726 0 .305.101.637.3.973.333.574.294.781-.214 1.113-.16.106-.414.461-.563.79l-.273.597.332.7c.469.98.972 1.464 1.672 1.616 1.125.243 1.843.063 2.535-.629.2-.199.473-.355.617-.355.34 0 1.18-.367 1.375-.598.113-.14.238-.168.496-.11.805.188 1.098.013 1.223-.722l.07-.414.852.047c.777.043.914.016 1.601-.308 1.043-.493 1.465-.915 1.559-1.563.043-.281.047-.656.008-.828-.164-.73-.524-1.703-.66-1.781-.333-.188-.938-.82-.938-.977 0-.094.125-.285.281-.43.278-.254.278-.273.13-.796-.126-.434-.24-.583-.59-.782-.673-.386-1.102-.332-1.923.246-.613.434-.726.477-.878.344-.739-.656-2.575-1.2-2.723-.805m3.156 3.668c0 .168.05.262.113.223a.3.3 0 0 0 .11-.223c0-.082-.051-.183-.11-.218-.062-.04-.113.054-.113.218m45.29.72c.038.062.116.112.171.112.059 0 .106-.05.106-.113 0-.058-.079-.11-.172-.11-.094 0-.141.052-.106.11m-50.402.79c-.41.304-.383.448.148.796.543.356.547.356.914.066.422-.332.375-.609-.144-.875-.535-.27-.54-.27-.918.012m7.058.488c-.25.188-.136.372.13.207.202-.128.32-.378.175-.375-.05.004-.187.079-.305.168m12.211 3.875c0 .094.051.141.114.102.062-.039.086-.117.05-.172-.097-.152-.164-.125-.164.07m7.282 2.004c.078.032.175.028.21-.011.036-.036-.027-.063-.144-.055-.129.004-.156.031-.066.066m-24.368 11.204c-.039.062.036.113.16.113.126 0 .227-.051.227-.113 0-.06-.07-.11-.16-.11a.3.3 0 0 0-.227.11"/></svg>