<svg xmlns="http://www.w3.org/2000/svg" width="87.266" height="77.715" viewBox="246.219 505.664 87.266 77.715"><path fill-rule="evenodd" d="M297.523 511.848c-.308.074-.957.343-1.449.597-.488.254-1.265.637-1.726.852-1.278.594-2.438 1.855-3.34 3.637-.942 1.867-1.531 4.14-1.645 6.328l-.062 1.254-.399.066c-.222.04-.488.09-.593.121-.137.035-.336-.176-.727-.765-2.773-4.188-5.543-6.637-8.441-7.454-.938-.265-2.329-.285-3.11-.05-.617.187-1.449.691-1.847 1.117-.235.25-.325.273-.774.21-.277-.038-.617-.14-.754-.226a1.06 1.06 0 0 0-.5-.148c-.664.011-3.55 1.383-3.77 1.789-.327.61.384 1.902 1.454 2.656.8.563.941.781.762 1.176-.122.262-.184.285-.875.285-.696 0-1.043.066-1.809.355-.258.098-.305.18-.305.532v.418l1.25-.38c.86-.257 1.317-.456 1.446-.624.164-.211.222-.227.414-.11.242.153.832.078 1-.12.054-.071.136-.305.175-.52.07-.375.04-.426-.742-1.172-1.14-1.09-1.43-1.469-1.43-1.887 0-.738.579-1.05 2.926-1.574.477-.11.891-.172.922-.14.031.03-.11.374-.308.761-.34.656-.364.777-.364 1.828 0 1.422.211 2.078.868 2.707 1.023.98 1.851 1.406 4.535 2.332 3.668 1.266 3.945 1.383 3.726 1.602-.152.156-3.68-.344-6.719-.95-3.05-.609-2.878-.554-3.253-.968-.243-.27-.426-.348-.872-.39-.535-.052-1.234.12-1.234.304 0 .043.285.203.637.355l.64.274-.832.293c-.46.16-.984.324-1.164.363l-.328.07.512.336c.48.309.543.324.984.207.34-.093.61-.093.985-.008.281.067.992.192 1.574.278l2.95.453c1.566.242 5.792.836 5.948.84.067 0-.086 1.949-.168 2.168-.066.168-.164.183-.699.113-.344-.043-1.18-.07-1.855-.066-1.489.015-2.617.285-3.887.925-1.164.586-1.629.918-2.668 1.887-1.492 1.395-2.555 2.895-5.172 7.297-1.523 2.563-2.394 3.906-3.367 5.184-.648.859-2.121 2.601-2.45 2.902-.1.09-.581.61-1.062 1.148-.902 1.012-3.367 3.32-4.84 4.532-.457.379-.91.773-1 .879-.222.253-1.879 1.515-2.214 1.691-.23.117-.258.195-.211.598.27 2.347 3.933 5.847 9.832 9.382.797.477 1.464.88 1.484.899.016.015-.121.277-.309.582-.53.863-.695 1.441-.71 2.48-.016.856.015 1.008.308 1.54.43.777 1.133 1.413 2.047 1.847.66.313.848.352 1.691.344a5.3 5.3 0 0 0 2.98-.914c.493-.32.65-.516.966-1.18.207-.441.414-.973.457-1.187s.097-.426.125-.465c.023-.043.402.027.843.152.446.125.856.238.922.254.063.012.188.055.282.09.484.195 2.625.437 4.332.492l1.937.063-.058-.305c-.047-.238-.012-.324.148-.363.23-.063.273-.2.098-.313-.164-.101-.02-.277.234-.277.277 0 .395.285.21.504-.073.093-.093.168-.042.168s.031.058-.043.132c-.23.227-.148.47.23.688.399.234 1.844.851 1.985.851.16 0 .73-.93.922-1.496.207-.62.23-1.332.078-2.156-.371-1.96-.602-6.879-.422-9.023.16-1.907.863-4.992 1.457-6.395.203-.476.234-.398.398 1.004.07.582.176 1.383.235 1.781.254 1.7.625 6.223.945 11.489.152 2.484.274 4.582.277 4.664 0 .082.043.117.098.086.05-.036.07.175.035.468-.05.48-.043.512.125.371.153-.12.188-.12.188-.003 0 .09.062.062.164-.07.156-.208.164-.208.164-.009.004.164.039.18.16.082.125-.105.176.036.293.793.145.961.25 1.204.52 1.204.09 0 .324.125.523.277q1.27.966 3.695.562c2.957-.492 7.551-1.925 11.246-3.511.735-.317 1.536-.66 1.782-.762 1.937-.809 9.414-4.738 9.414-4.945 0-.055.047-.098.105-.098.188 0 2.953-1.684 3.68-2.242.156-.117.394-.262.531-.32.137-.063.25-.188.25-.282 0-.09.063-.168.137-.168.183 0 1.98-1.226 1.98-1.351 0-.055.075-.098.168-.098.09 0 .164-.043.164-.094 0-.05.239-.25.532-.437.644-.426 2.664-2.414 3.304-3.258.258-.34.711-1.004 1-1.48.293-.473.668-.958.828-1.079.262-.187.293-.285.29-.863-.004-.48-.086-.824-.32-1.312-.376-.778-1.61-2.118-2.837-3.075-.91-.707-1.558-1.21-3.613-2.797a62 62 0 0 1-2.059-1.656 78 78 0 0 0-1.41-1.176c-1.633-1.308-2.746-2.554-4.687-5.246-1.692-2.343-2.61-3.52-3.383-4.332-.52-.554-2.05-1.859-2.176-1.859-.039 0-.164-.09-.281-.195-.32-.301-2.965-1.645-3.863-1.961-1.461-.524-2.336-.63-4.864-.602l-2.324.028.074-.579c.133-1.078-.27-2.402-.914-3.004-.14-.132-.254-.273-.254-.316s1.368-.062 3.035-.043c2.957.04 3.06.047 3.88.336 1.28.453 1.956.79 3.054 1.527.574.383 1.047.63 1.102.575.054-.055.074-.407.046-.778-.042-.61-.093-.73-.484-1.14-.277-.286-.82-.641-1.453-.946-1.496-.715-3.004-.968-5.836-.976-1.195 0-2.5.035-2.898.086-.399.047-.688.05-.645.011.09-.093 1.152-.324 2.817-.609 1.554-.27 4.128-.934 5.062-1.309.398-.16 1.008-.457 1.363-.664l.64-.379.911.235c.496.125 1.129.308 1.406.398.274.094.528.14.563.106s-.02-.246-.125-.469c-.106-.219-.172-.422-.149-.445.028-.028.465.027.98.113.516.09 1.227.2 1.587.242l.652.078-.078-.488c-.102-.625-.254-.777-.863-.848-.395-.043-.7.028-1.485.344-.543.219-1.015.356-1.047.309-.128-.2-2.027-.965-2.675-1.086a3 3 0 0 1-.418-.098c-.078-.027-.14.016-.14.098 0 .41-.364.836-.923 1.078-.781.336-2.8 1.09-3.422 1.273q-.5.153-.988.328c-.773.282-.766.215.04-.394 1.046-.793 2.823-2.625 3.51-3.621 1.075-1.559 1.888-3.711 2.032-5.399.063-.699-.164-1.726-.45-2.043-.32-.355-2.593-1.402-3.421-1.578-.922-.195-1.473-.199-2.227-.015m.66 1.453c-2.027.668-2.921 2.031-5.062 7.738a116 116 0 0 1-1.176 3.008c-.316.754-.457 1.223-.39 1.289.187.187 2.832-1.254 4.632-2.531 2.418-1.711 3.758-3.145 4.715-5.051.743-1.48.98-2.871.653-3.828-.121-.352-.192-.403-.739-.524-1-.218-2.132-.265-2.632-.101m-21.368 4.41c-.68.27-1.023.586-1.347 1.23-.489.977-.688 2.563-.395 3.133.434.84 1.012 1.051 5.348 1.946 2.219.457 3.598.875 4.734 1.43.93.452 1.594.741 1.7.741.289 0 .242-.398-.098-.882-1.547-2.196-1.957-2.676-3.863-4.555-2.735-2.7-4.61-3.637-6.079-3.043m29.29 3.523c-1.04.434-1.012.496.222.496 1.098-.003 1.113-.007 1.598-.39l.488-.39-.82.003c-.617.004-.992.074-1.489.281m-38.601 1.25c.004.664.246.832.828.567.3-.137.387-.43.129-.43-.086 0-.215-.074-.293-.164-.195-.238-.668-.219-.664.027m29.965.985c-.524.394-1.442.972-2.043 1.285-.602.308-1.078.582-1.059.605.094.09 1.2-.351 1.762-.707.988-.625 2.621-1.925 2.394-1.91-.058.004-.535.332-1.054.727m-18.922 1.328c.219.219 5.18 1.57 5.312 1.445.055-.047-1.238-.445-2.71-.832l-1.872-.496c-.691-.184-.816-.203-.73-.117m29.168.34c-.582.086-1.582.203-2.227.261-1.77.16-3.12.68-3.12 1.2 0 .207.69.32 1.948.316.856-.004 1.215-.05 1.536-.207.468-.234.539-.398.164-.414-.496-.016.375-.297 1.168-.375.644-.063.804-.043 1.062.14.672.473.98.368 1.09-.374.043-.278.059-.524.035-.547-.133-.133-.726-.133-1.656 0m-18.406.91c-.223.055-.258.262-.075.445.13.13.547.067.547-.082 0-.164-.136-.441-.207-.43a4 4 0 0 0-.265.067m2.699 1.027c0 .13.039.235.086.239.043.003.293.046.55.093.555.11.528-.023-.058-.289-.227-.105-.45-.207-.492-.23-.047-.024-.086.058-.086.187m-7.434.84c-.469.211-.808.777-.808 1.356 0 .25-.102.847-.223 1.328-.125.48-.223.933-.223 1.011 0 .118 1.305.942 1.493.942.035 0 .066-.098.066-.211 0-.145.105-.23.344-.278.468-.093 1.058-.71 1.207-1.265.148-.555.242-1.977.156-2.406-.078-.383-.262-.485-1.04-.57-.421-.048-.722-.02-.972.093m6.672.754c-.652.672-.851 1.129-.851 1.95 0 .64.027.722.386 1.093.23.238.465.383.574.355.18-.046 1.7.352 1.946.508.066.043.277.02.469-.05.425-.165.515-.579.37-1.723-.187-1.45-.925-2.367-1.913-2.375-.157-.004-.336-.055-.403-.121-.078-.078-.258.03-.578.363m-2.914 2.832c-.3.836-.582 1.14-1.312 1.422-.594.23-1.18.238-1.364.012-.094-.114-.183-.133-.254-.063-.07.074.11.352.524.809.656.726 1.344 1.949 1.469 2.613l.07.379.613-.547c1-.895 2.367-1.844 3.617-2.512.285-.152.547-.324.582-.379.059-.097-.53-.234-1.03-.238-.145 0-.388-.101-.544-.223-.156-.125-.379-.226-.492-.226s-.207-.047-.207-.11c0-.062-.106-.113-.234-.113-.282 0-.711-.324-1.063-.797l-.258-.351Zm-9.414 1.008c-2.246.344-4.348 1.777-6.461 4.402-1.223 1.524-2.742 3.602-3.203 4.395-.18.304-.43.734-.555.945-.133.23.508-.336 1.563-1.383l1.789-1.773.914-.055.91-.05-.691.87a43 43 0 0 1-1.395 1.66 61 61 0 0 0-1.297 1.512l-.594.727.528-.426c.984-.793.535-.148-.863 1.242-.766.762-1.395 1.352-1.395 1.309s-.203.148-.453.426c-.3.332-.52.48-.64.441-.141-.043-.15-.031-.04.047s.012.207-.39.515c-.297.223-.563.399-.594.391-.028-.008-.281.203-.555.473-.277.27-.777.699-1.117.953-.336.254-.984.816-1.445 1.25-.461.433-.88.789-.926.793-.051 0-.324.226-.61.504-.28.277-.546.504-.586.504s-.25.16-.464.36c-.215.198-.52.464-.68.585-.16.125-.293.316-.293.426-.004.11-.059.172-.117.133-.063-.04-.113.007-.113.105 0 .094.039.172.085.172.145 0 1.157-.566 1.72-.961.292-.207.581-.375.64-.375.058 0 .172-.094.25-.207.082-.11.574-.547 1.094-.969s.972-.793 1.003-.828c.391-.433 1.383-1.215 1.473-1.16.067.043.086.023.047-.043s.238-.379.621-.695c2.07-1.715 2.297-1.91 6.254-5.457 1.035-.926 1.93-1.684 1.984-1.684.059 0 .204.055.325.117.203.11.171.176-.47 1.008-1.16 1.5-1.944 2.246-5.276 5.012-1.461 1.215-1.22 1.02-3.008 2.406-1.278.992-4.043 2.926-4.348 3.043-.059.023-.344.215-.625.418-.285.207-.547.375-.586.375-.066 0-.148.066-1.11.887-.675.574-1.519 1.011-1.964 1.011-.434 0-3.059 1.024-2.871 1.121.078.043.515.165.976.274 1.403.336 2.766.871 5.305 2.094 1.34.644 2.813 1.347 3.274 1.562.898.418 6.363 3.098 9.632 4.723 1.106.547 2.36 1.226 2.785 1.508 2.16 1.418 5.012 3.105 5.243 3.105.043 0 .043-.113.004-.25-.332-1.172-.614-8.258-.407-10.18.254-2.363 1.176-5.609 2.285-8.058.446-.985.473-1.098.31-1.227-.161-.125-.165-.183-.032-.5.12-.281.148-.949.125-2.93-.031-2.757.047-3.484.62-5.628.31-1.153.942-2.477 1.513-3.172.394-.48.406-.621.129-1.598-.243-.844-.891-1.953-1.543-2.633-.934-.972-2.399-1.511-4.29-1.578-.582-.02-1.21-.012-1.394.016m18.55.71c-1.16.157-1.406.216-2.558.618-2.183.758-4.02 1.867-5.617 3.39-1.91 1.82-3.004 3.97-3.356 6.587l-.144 1.058.394 1.34c1.258 4.281 1.473 5.191 1.856 7.871.516 3.602.566 4.664.547 11.313-.012 3.433-.047 6.796-.078 7.472-.051 1.094-.04 1.203.105 1.004l.797-1.094c1.695-2.34 6.813-6.582 11.34-9.406 5.144-3.21 12.3-6.59 16.039-7.574 2.086-.55 4.453-.926 5.852-.922.492 0 2.007.23 2.457.371.312.102.277-.242-.079-.785-.41-.621-1.968-2.2-2.796-2.84-.383-.293-1.036-.672-1.45-.836-.414-.168-.867-.36-1.007-.426-.196-.093-.516-.062-1.38.133-6.347 1.434-17.027 7.387-22.41 12.496-.296.282-.582.617-.632.754-.11.278-.547.285-.864.008-.105-.09-.332-.2-.5-.238-.347-.082-.34-.035-.191-1.297.168-1.43.14-4.461-.05-5.824-.255-1.805-.97-4.567-1.833-7.055-.867-2.52-1.2-3.887-1.305-5.434-.18-2.539.715-6.086 1.864-7.394.383-.438.64-.488.914-.188.27.301.234 1.239-.094 2.48-.965 3.645-1.055 4.872-.512 6.91.36 1.345 1.024 3.235 1.137 3.235.043 0 .16-.39.262-.867 1.031-4.808 1.898-6.836 2.867-6.7.242.036.254.083.238.763-.011.398-.148 1.203-.304 1.785-.774 2.87-1.317 4.945-1.528 5.855-.129.551-.36 1.254-.512 1.559l-.277.558.192 1.508c.23 1.824.367 2.344.378 1.446.016-.989.594-2.895 2.153-7.079.601-1.617 1.21-2.566 1.601-2.492.45.086.368.528-.808 4.387-1.488 4.887-1.844 5.785-2.356 5.98a.6.6 0 0 1-.484-.02c-.219-.116-.223-.093-.156 1.813.082 2.418.164 3.914.226 3.977.024.023.711-.457 1.528-1.066 2.664-2 6.16-4.356 7.828-5.278.37-.203.746-.43.836-.508.21-.175 3.836-2.023 4.734-2.41 2.992-1.289 5.363-2.16 6.965-2.547.336-.086.625-.156.637-.164.015-.008-.497-.55-1.137-1.207-2.117-2.172-5.395-6.097-6.629-7.937-1.14-1.703-2.207-3.024-3.012-3.739-.875-.777-.851-.8-.437.446.11.34.183.629.168.648-.086.082-1.133-.937-1.25-1.215-.207-.488-.996-1.277-1.82-1.824-.419-.273-.778-.55-.797-.617-.06-.176-1.52-.652-2.391-.777-.863-.125-2.246-.13-3.16-.004m-22.84 12.222c-1.27.95-2.766 2.004-4.734 3.34-3.461 2.344-4.125 2.797-4.707 3.207-1.168.824-1.66 1.164-2.532 1.75-.492.328-1.043.73-1.226.899-.227.203-.512.324-.887.37-.684.09-.809.2-.64.563.081.184.273.317.562.395 1.664.45 5.453.613 6.558.285.61-.184.832-.465.532-.687-.215-.157-.649-.211-2.89-.383-.915-.067-1.759-.16-1.872-.203-.164-.059.129-.297 1.387-1.125.875-.575 2.496-1.676 3.597-2.446 1.102-.773 2.11-1.476 2.246-1.57.258-.176.848-.602 2.938-2.113 2.039-1.48 2.351-1.797 2.488-2.543.035-.2.055-.364.043-.364-.015 0-.402.282-.863.625m26.183 2.91c-.5.637-1.761 3.657-2.574 6.157-.765 2.355-.855 3.355-.316 3.527.418.133.672-.37 1.652-3.281.371-1.106.797-2.277.946-2.602.832-1.828 1.398-3.382 1.402-3.851 0-.215-.059-.25-.438-.25-.34 0-.488.066-.671.3m-27.91 1.77-1.56.754c-1.515.723-6.382 3.191-6.773 3.426l-.343.21.382-.027c.211-.015.446-.062.516-.109.078-.047.176-.004.238.102.09.164.192.144.98-.196.868-.379 4.762-2.55 5.946-3.324.871-.566 1.34-.926 1.34-1.031 0-.133-.113-.106-.727.195m30.082.734c-.035.145-.238.98-.449 1.86-.215.879-.39 1.816-.39 2.086 0 .535.187 1.058.382 1.058.18-.004.551-.71.989-1.898.875-2.36.933-2.75.468-3.055a2 2 0 0 0-.609-.25c-.277-.054-.336-.027-.39.2m17.82 5.636c-2.336.52-5.434 1.633-8.657 3.106-1.652.757-5.336 2.812-5.914 3.3-.332.286-.343.317-.171.493.171.18.222.18.714.011.317-.109.895-.183 1.43-.183 1.36 0 2.277.406 2.805 1.242l.273.434.473-.454c.375-.359 2.894-2.328 4.64-3.62.348-.259 1.875-1.544 3.625-3.055 1.73-1.489 1.602-1.352 1.278-1.336a4 4 0 0 0-.496.062m3.476 1.442c-.293.593-.511 1.097-.484 1.125.062.062.7-.954.906-1.457.387-.926.082-.688-.422.332m-68.812.644c0 .149 1.472 1.652 2.172 2.215.71.574 2.382 1.734 3.293 2.285 1.816 1.098 5.632 2.938 6.074 2.93.16-.004.847-1.121.789-1.278-.059-.156-.735-.546-2.86-1.652a159 159 0 0 1-1.949-1.031c-2.472-1.348-7.144-3.625-7.449-3.625-.039 0-.07.07-.07.156m50.476 2.871c-.293.114-1.52.852-2.738 1.653-.43.277-.863.558-.969.62-.48.282-3.265 2.298-4.215 3.051-1.855 1.47-3.918 3.301-5.183 4.606-1.277 1.312-3.024 3.402-2.922 3.5.031.031.2-.016.375-.11.18-.09.875-.374 1.547-.628a62 62 0 0 0 1.687-.668c.254-.114.606-.239.782-.282.457-.109 3.074-1.164 3.257-1.312.086-.07.188-.121.223-.113.094.02.582-.157.824-.297.11-.063.246-.086.305-.051.059.039.11-.008.11-.102 0-.097.062-.144.152-.113a.17.17 0 0 0 .215-.101c.035-.09.89-.575 1.906-1.075 1.015-.5 1.847-.945 1.847-.988s-.246-.285-.546-.547c-1.086-.937-1.254-1.855-.575-3.199.407-.8 1.774-2.297 2.098-2.297.117 0 .336-.101.48-.226a76 76 0 0 1 1.653-1.297c.125-.098-.078-.114-.313-.024m11.239.824c-.079.094-.09.164-.024.164.063 0 .14-.074.176-.164.035-.093.047-.168.027-.168-.023 0-.101.075-.18.168m-.667.516c-.215.184-.29.285-.168.223.351-.172.675-.438.613-.5-.031-.032-.23.093-.445.277m-29.512.274c.004.128.031.156.066.066.035-.082.032-.176-.007-.215-.036-.035-.063.031-.06.149m-.007.585c0 .192.05.352.113.352.067 0 .082-.125.04-.305-.106-.441-.153-.453-.153-.047m28.574-.207c-.039.063.004.082.106.043.191-.074.226-.152.066-.152-.058 0-.133.047-.172.11m-8.183.765-.278.082.371.383c.204.215.512.668.684 1.008.457.906.57.968 1.02.566.343-.305.37-.383.37-1.004 0-.91-.156-1.058-1.144-1.094-.41-.015-.875.012-1.023.059m-20.242.742c0 .43.02.59.043.36s.023-.582 0-.782c-.024-.199-.043-.007-.043.422m17.035-.187c-.473.25-.856.824-1.086 1.62-.324 1.11.054 1.833 1.125 2.145.676.196 1.187.149 1.867-.168.234-.109.574-.183.754-.164.191.024.3-.004.265-.066-.039-.059.07-.14.239-.184.195-.047.32-.03.347.051.059.176.247.168.247-.008 0-.078.152-.242.335-.363.399-.266.57-.578.215-.387-.332.176-.738-.12-1.699-1.238-1.172-1.36-1.812-1.664-2.61-1.238m-35.558 1.086c-.137.28-.223.539-.183.578.09.09.113.054.378-.559.297-.676.141-.691-.195-.02m1.676.833c-.074.246-.102.496-.067.558.04.059.012.11-.054.11-.207 0 0 .226.316.351.367.145 2.25.422 2.887.426.918.004.375-.395-2.102-1.55-.402-.188-.757-.345-.789-.345-.031 0-.117.204-.191.45m-6.113.011c.062.204.523.43.714.356.227-.09.184-.235-.097-.317l-.461-.128q-.21-.061-.156.09m44.59.765c-.04.063-.016.113.05.113.063 0 .117-.05.117-.113 0-.062-.023-.11-.05-.11s-.079.048-.118.11m-41.433.89c-.235.122-.719.25-1.074.294-.45.05-.711.144-.864.308-.902.977-1.16 3.442-.46 4.426.421.59 1.874.797 2.683.379.43-.223.867-.785 1.254-1.61.465-.992.488-2.132.062-2.96-.242-.47-.851-1.059-1.101-1.059-.04 0-.262.102-.5.223m19.32 5.132c0 .063.05.114.113.114.059 0 .11-.051.11-.114a.113.113 0 0 0-.11-.113.113.113 0 0 0-.113.113m4.457 2.364c-.652.144-.898.37-.281.261.476-.085 1.223-.378.95-.375-.09.004-.391.055-.669.114"/></svg>